PathFileType	4	(X/Y/Z)	Walk7.trc
DataRate	CameraRate	NumFrames	NumMarkers	Units	OrigDataRate	OrigDataStartFrame	OrigNumFrames
200.000000	200.000000	4	60	mm	200.000000	509	829
Frame#	Times		RCAR		LTH3		RTH2		LBHD		LUA1		LWRU		RFA1		LFA1		LCAR		RTB3		LElbow		RToe		RTB2		RBHD		LElbowM		LTH2		C7		RPSI		RWRU		LWRR		RMT1		RMT5		RTB1		STRN		RLFC		RElbow		CLAV		T10		RBack		LPSI		LASI		LTH4		RLMAL		LLFC		LACR1		RUA1		LTB3		LTB4		RMMAL		LCAL		RTH3		LFHD		RElbowM		RCAL		LTB1		RACR1		RTH1		LTB2		LMMAL		RTH4		LMFC		RWRR		LMT5		RFHD		LLMAL		RASI		RTB4		LToe		LMT1		LTH1
			X1	Y1	Z1	X2	Y2	Z2	X3	Y3	Z3	X4	Y4	Z4	X5	Y5	Z5	X6	Y6	Z6	X7	Y7	Z7	X8	Y8	Z8	X9	Y9	Z9	X10	Y10	Z10	X11	Y11	Z11	X12	Y12	Z12	X13	Y13	Z13	X14	Y14	Z14	X15	Y15	Z15	X16	Y16	Z16	X17	Y17	Z17	X18	Y18	Z18	X19	Y19	Z19	X20	Y20	Z20	X21	Y21	Z21	X22	Y22	Z22	X23	Y23	Z23	X24	Y24	Z24	X25	Y25	Z25	X26	Y26	Z26	X27	Y27	Z27	X28	Y28	Z28	X29	Y29	Z29	X30	Y30	Z30	X31	Y31	Z31	X32	Y32	Z32	X33	Y33	Z33	X34	Y34	Z34	X35	Y35	Z35	X36	Y36	Z36	X37	Y37	Z37	X38	Y38	Z38	X39	Y39	Z39	X40	Y40	Z40	X41	Y41	Z41	X42	Y42	Z42	X43	Y43	Z43	X44	Y44	Z44	X45	Y45	Z45	X46	Y46	Z46	X47	Y47	Z47	X48	Y48	Z48	X49	Y49	Z49	X50	Y50	Z50	X51	Y51	Z51	X52	Y52	Z52	X53	Y53	Z53	X54	Y54	Z54	X55	Y55	Z55	X56	Y56	Z56	X57	Y57	Z57	X58	Y58	Z58	X59	Y59	Z59	X60	Y60	Z60

509	2.545	-412.29	897.34	329.92	-612.92	599.85	-154.96	-689.22	675.71	168.09	-694.91	1623.9	-53.655	-744.44	1285.1	-242.43	-808.55	852.2	-255.91	-566.27	997.84	347.43	-814.87	987.57	-265.74	-749.63	797.82	-268.9	-906.88	189.01	77.169	-804.3	1138.7	-257.86	-805.61	22.605	97.608	-895.74	273.8	150.01	-681.64	1632.1	87.285	-829.51	1136.6	-184.1	-573.76	709.41	-140.04	-719.72	1499	20.266	-845.85	1018.4	61.074	-480.62	891.47	332.26	-735.08	850.81	-217.63	-858.44	34.123	73.238	-914.39	20.586	148.23	-825.62	355.56	98.734	-556.89	1229.1	7.3848	-835.02	493.44	169.94	-651.49	1129	336.56	-592.56	1404.7	11.937	-834.67	1281.2	20.031	-791.8	1412.4	156.72	-849.01	1010.9	-16.233	-636.86	1015.5	-118.72	-636.36	688.2	-170.25	-996.2	86.151	110.36	-588.44	506.67	-139.31	-660.4	1449.8	-154.48	-643.49	1281.3	281.44	-449.89	214.34	-75.264	-472.65	307.94	-72.047	-955.18	97.647	47.062	-493.55	19.915	-68.723	-787.3	605.91	180.88	-513.88	1663.7	-29.179	-684.47	1100.6	266.36	-1053.9	61.291	57.539	-494.37	395.21	-71.447	-637.14	1444	173.17	-728.23	785.74	202.82	-502.89	302.69	-141.17	-429.81	105.76	-37.352	-755.5	694.03	195.11	-577.41	511.85	-5.9804	-439.48	927.52	275.68	-337.65	47.543	-139.98	-507.64	1666.7	46.537	-453.09	75.266	-116.38	-637.38	1018.6	168.71	-865.3	271.47	86.707	-258.75	93.757	-80.613	-303.01	79.03	-62.614	-657.78	779.12	-178.5
510	2.55	-406.82	897.23	329.33	-606.4	599.55	-154.56	-684.13	675.13	168.38	-689.33	1623.3	-54.347	-738.69	1284.4	-243.1	-803.96	851.58	-256.7	-561.13	997.25	346.67	-809.68	986.96	-266.5	-745.25	796.88	-269.27	-905.27	189.38	77.496	-798.6	1138	-258.61	-805.55	22.503	97.654	-893.23	274.11	150.2	-676.14	1631.5	86.594	-824.09	1136	-184.95	-567.4	709.24	-140.25	-714.21	1498.4	19.563	-840.06	1017.7	60.317	-475.14	891.15	331.46	-730.72	849.86	-217.97	-858.34	34.171	73.335	-914.29	20.63	148.3	-822.29	355.17	98.877	-551.23	1228.5	7.0188	-830.6	493.25	170.03	-646.61	1128.3	335.81	-587	1404.1	11.406	-829.03	1280.5	19.333	-786.49	1411.8	155.95	-843.18	1010.2	-16.952	-630.77	1014.8	-118.95	-629.95	687.83	-170.39	-995.56	87.455	110.77	-582.04	506.04	-138.82	-654.73	1449.1	-155.11	-638.42	1280.6	280.8	-445.28	213.16	-73.986	-467.39	306.89	-70.953	-953.97	98.229	48.848	-491.04	19.996	-67.644	-782.45	605.58	180.86	-508.32	1663.2	-29.762	-679.35	1100	265.5	-1053.5	63.181	57.925	-488.52	394.28	-70.526	-631.76	1443.4	172.63	-723.04	785.31	202.59	-497.63	301.7	-140.02	-426.14	104.46	-35.883	-750.47	693.66	194.99	-570.74	511.49	-5.6108	-433.94	927.46	275.11	-334.63	45.179	-138.32	-502.13	1666.1	45.96	-449.51	74.305	-115.02	-631.93	1018	168.65	-862.86	271.45	86.958	-254.97	89.95	-78.462	-299.66	76.047	-60.744	-651.53	778.66	-178.99
511	2.555	-401.48	897.07	328.75	-599.71	599.37	-154.17	-678.92	674.56	168.66	-683.74	1622.7	-55.076	-732.89	1283.6	-243.79	-799.22	850.97	-257.53	-556.1	996.65	345.88	-804.38	986.36	-267.29	-740.72	795.96	-269.66	-903.58	189.79	77.848	-792.84	1137.3	-259.37	-805.5	22.407	97.69	-890.62	274.44	150.42	-670.63	1631	85.866	-818.59	1135.4	-185.82	-560.87	709.17	-140.47	-708.67	1497.8	18.825	-834.24	1017	59.574	-469.8	890.79	330.66	-726.23	848.93	-218.33	-858.25	34.219	73.428	-914.18	20.686	148.38	-818.84	354.77	99.033	-545.54	1228	6.6121	-826.04	493.04	170.14	-641.8	1127.6	335.02	-581.41	1403.6	10.845	-823.36	1279.9	18.63	-781.16	1411.3	155.13	-837.32	1009.6	-17.659	-624.66	1014.2	-119.2	-623.38	687.57	-170.52	-994.87	88.842	111.21	-575.48	505.52	-138.39	-649.04	1448.4	-155.76	-633.38	1280	280.12	-440.86	211.94	-72.75	-462.22	305.82	-69.881	-952.57	98.94	50.612	-489	20.173	-66.706	-777.46	605.23	180.84	-502.75	1662.6	-30.37	-674.29	1099.4	264.6	-1053.1	65.188	58.351	-482.67	393.35	-69.61	-626.35	1442.9	172.08	-717.76	784.88	202.32	-492.4	300.76	-138.92	-422.83	103.09	-34.483	-745.33	693.29	194.85	-563.94	511.18	-5.3182	-428.53	927.35	274.55	-332.08	42.685	-136.82	-496.61	1665.6	45.36	-446.27	73.354	-113.75	-626.42	1017.5	168.54	-860.31	271.43	87.227	-251.52	85.718	-76.341	-296.7	72.767	-58.942	-645.14	778.3	-179.46
512	2.56	-396.3	896.85	328.19	-592.86	599.28	-153.8	-673.6	674.01	168.91	-678.13	1622.2	-55.843	-727.05	1282.9	-244.51	-794.33	850.37	-258.39	-551.18	996.06	345.07	-798.98	985.76	-268.09	-736.03	795.07	-270.08	-901.83	190.24	78.223	-787.02	1136.7	-260.15	-805.46	22.317	97.717	-887.9	274.79	150.66	-665.12	1630.5	85.102	-813.03	1134.8	-186.71	-554.2	709.21	-140.71	-703.11	1497.2	18.055	-828.39	1016.3	58.851	-464.62	890.42	329.84	-721.59	848.03	-218.71	-858.15	34.265	73.52	-914.05	20.754	148.46	-815.26	354.37	99.203	-539.82	1227.5	6.1651	-821.3	492.81	170.26	-637.06	1127	334.18	-575.81	1403.1	10.255	-817.66	1279.3	17.926	-775.82	1410.8	154.28	-831.43	1009	-18.349	-618.55	1013.6	-119.49	-616.68	687.42	-170.64	-994.11	90.312	111.7	-568.75	505.12	-138.01	-643.34	1447.7	-156.43	-628.36	1279.3	279.41	-436.63	210.72	-71.564	-457.13	304.76	-68.837	-950.95	99.791	52.327	-487.36	20.446	-65.912	-772.32	604.87	180.82	-497.18	1662.2	-31.003	-669.28	1098.8	263.64	-1052.5	67.321	58.815	-476.81	392.44	-68.703	-620.93	1442.4	171.5	-712.39	784.46	202.03	-487.16	299.88	-137.88	-419.84	101.69	-33.166	-740.07	692.91	194.69	-557.04	510.94	-5.1087	-423.24	927.19	273.99	-329.94	40.123	-135.51	-491.08	1665.2	44.735	-443.34	72.437	-112.59	-620.85	1017	168.39	-857.67	271.44	87.514	-248.37	81.152	-74.276	-294.07	69.276	-57.232	-638.62	778.04	-179.9
